<svg xmlns="http://www.w3.org/2000/svg" xmlns:xlink="http://www.w3.org/1999/xlink" width="720" zoomAndPan="magnify" viewBox="0 0 540 540.000001" height="720" preserveAspectRatio="xMidYMid meet" version="1.0"><defs><g/><clipPath id="c3eb3b28aa"><rect x="0" width="413" y="0" height="235"/></clipPath></defs><g transform="matrix(1, 0, 0, 1, 61, 152)"><g clip-path="url(#c3eb3b28aa)"><g fill="#ffffff" fill-opacity="1"><g transform="translate(0.550883, 175.848353)"><g><path d="M 83.75 -20.8125 L 39.78125 -20.8125 L 32.71875 0 L 2.6875 0 L 45.3125 -117.8125 L 78.546875 -117.8125 L 121.171875 0 L 90.796875 0 Z M 76.359375 -42.96875 L 61.765625 -86.09375 L 47.328125 -42.96875 Z M 76.359375 -42.96875 "/></g></g></g><g fill="#ffffff" fill-opacity="1"><g transform="translate(95.878794, 175.848353)"><g><path d="M 115.796875 0 L 87.109375 0 L 39.109375 -72.671875 L 39.109375 0 L 10.40625 0 L 10.40625 -117.8125 L 39.109375 -117.8125 L 87.109375 -44.8125 L 87.109375 -117.8125 L 115.796875 -117.8125 Z M 115.796875 0 "/></g></g></g><g fill="#ffffff" fill-opacity="1"><g transform="translate(193.724165, 175.848353)"><g><path d="M 70.484375 0 L 45.984375 -44.46875 L 39.109375 -44.46875 L 39.109375 0 L 10.40625 0 L 10.40625 -117.8125 L 58.578125 -117.8125 C 67.859375 -117.8125 75.769531 -116.1875 82.3125 -112.9375 C 88.863281 -109.695312 93.757812 -105.25 97 -99.59375 C 100.25 -93.945312 101.875 -87.65625 101.875 -80.71875 C 101.875 -72.894531 99.660156 -65.90625 95.234375 -59.75 C 90.816406 -53.59375 84.300781 -49.226562 75.6875 -46.65625 L 102.875 0 Z M 39.109375 -64.78125 L 56.890625 -64.78125 C 62.148438 -64.78125 66.09375 -66.066406 68.71875 -68.640625 C 71.351562 -71.210938 72.671875 -74.847656 72.671875 -79.546875 C 72.671875 -84.023438 71.351562 -87.550781 68.71875 -90.125 C 66.09375 -92.695312 62.148438 -93.984375 56.890625 -93.984375 L 39.109375 -93.984375 Z M 39.109375 -64.78125 "/></g></g></g><g fill="#ffffff" fill-opacity="1"><g transform="translate(274.786454, 175.848353)"><g><path d="M 83.75 -20.8125 L 39.78125 -20.8125 L 32.71875 0 L 2.6875 0 L 45.3125 -117.8125 L 78.546875 -117.8125 L 121.171875 0 L 90.796875 0 Z M 76.359375 -42.96875 L 61.765625 -86.09375 L 47.328125 -42.96875 Z M 76.359375 -42.96875 "/></g></g></g><g fill="#ffffff" fill-opacity="1"><g transform="translate(370.114345, 175.848353)"><g><path d="M 23.828125 1.34375 C 18.796875 1.34375 14.6875 -0.132812 11.5 -3.09375 C 8.3125 -6.0625 6.71875 -9.726562 6.71875 -14.09375 C 6.71875 -18.570312 8.3125 -22.320312 11.5 -25.34375 C 14.6875 -28.363281 18.796875 -29.875 23.828125 -29.875 C 28.753906 -29.875 32.8125 -28.363281 36 -25.34375 C 39.1875 -22.320312 40.78125 -18.570312 40.78125 -14.09375 C 40.78125 -9.726562 39.1875 -6.0625 36 -3.09375 C 32.8125 -0.132812 28.753906 1.34375 23.828125 1.34375 Z M 23.828125 1.34375 "/></g></g></g></g></g></svg>